# Blender v2.93.2 OBJ File: ''
# www.blender.org
mtllib triforce.mtl
o Circle
v 0.000000 1.729740 -0.000000
v -0.866025 0.229740 0.000000
v 0.866025 0.229740 0.000000
v 0.000000 1.729740 0.281297
v -0.866025 0.229740 0.281297
v 0.866025 0.229740 0.281297
v 1.733275 1.729740 -0.000000
v 0.867249 0.229740 0.000000
v 2.599300 0.229740 0.000000
v 1.733275 1.729740 0.281297
v 0.867249 0.229740 0.281297
v 2.599300 0.229740 0.281297
v 0.864962 3.231421 -0.000000
v -0.001063 1.731421 0.000000
v 1.730987 1.731421 0.000000
v 0.864962 3.231421 0.281297
v -0.001063 1.731421 0.281297
v 1.730987 1.731421 0.281297
vt 0.000000 0.000000
vt 0.000000 0.000000
vt 0.000000 0.000000
vt 0.000000 0.000000
vt 0.000000 0.000000
vt 0.000000 0.000000
vt 0.000000 0.000000
vt 0.000000 0.000000
vt 0.000000 0.000000
vt 0.000000 0.000000
vt 0.000000 0.000000
vt 0.000000 0.000000
vt 0.000000 0.000000
vt 0.000000 0.000000
vt 0.000000 0.000000
vt 0.000000 0.000000
vt 0.000000 0.000000
vt 0.000000 0.000000
vn 0.0000 -0.0000 -1.0000
vn 0.0000 0.0000 1.0000
vn 0.8660 0.5000 0.0000
vn 0.0000 -1.0000 0.0000
vn -0.8660 0.5000 0.0000
usemtl None
s off
f 3/1/1 2/2/1 1/3/1
f 6/4/2 4/5/2 5/6/2
f 3/1/3 1/3/3 4/5/3 6/4/3
f 2/2/4 3/1/4 6/4/4 5/6/4
f 1/3/5 2/2/5 5/6/5 4/5/5
f 9/7/1 8/8/1 7/9/1
f 12/10/2 10/11/2 11/12/2
f 9/7/3 7/9/3 10/11/3 12/10/3
f 8/8/4 9/7/4 12/10/4 11/12/4
f 7/9/5 8/8/5 11/12/5 10/11/5
f 15/13/1 14/14/1 13/15/1
f 18/16/2 16/17/2 17/18/2
f 15/13/3 13/15/3 16/17/3 18/16/3
f 14/14/4 15/13/4 18/16/4 17/18/4
f 13/15/5 14/14/5 17/18/5 16/17/5
